<?xml version="1.0" encoding="UTF-8" standalone="no"?>
<svg width="512" height="512" viewBox="0 0 512 512" fill="none" xmlns="http://www.w3.org/2000/svg">
  <!-- 背景圆形 -->
  <circle cx="256" cy="256" r="256" fill="url(#gradient-bg)"/>
  
  <!-- Q字母 -->
  <path d="M180 160C180 148.954 188.954 140 200 140H280C291.046 140 300 148.954 300 160V240C300 251.046 291.046 260 280 260H240V300H320V340H200C188.954 340 180 331.046 180 320V160Z" fill="white"/>
  
  <!-- 3字母 -->
  <path d="M320 180C320 168.954 311.046 160 300 160H240V200H300V220H260V260H300V280H240V320H300C311.046 320 320 311.046 320 300V180Z" fill="white"/>
  
  <!-- 装饰元素 - 小圆点 -->
  <circle cx="160" cy="200" r="15" fill="#FFD700"/>
  <circle cx="160" cy="280" r="15" fill="#FFD700"/>
  <circle cx="340" cy="200" r="15" fill="#FFD700"/>
  <circle cx="340" cy="280" r="15" fill="#FFD700"/>
  
  <!-- 装饰线条 -->
  <path d="M160 215L160 265" stroke="#FFD700" stroke-width="6"/>
  <path d="M340 215L340 265" stroke="#FFD700" stroke-width="6"/>
  
  <!-- 渐变定义 -->
  <defs>
    <linearGradient id="gradient-bg" x1="0" y1="0" x2="512" y2="512" gradientUnits="userSpaceOnUse">
      <stop offset="0%" stop-color="#9333EA"/>
      <stop offset="100%" stop-color="#EC4899"/>
    </linearGradient>
  </defs>
</svg>
